<?xml version="1.0" standalone="no"?>
<!DOCTYPE svg PUBLIC "-//W3C//DTD SVG 20010904//EN"
 "http://www.w3.org/TR/2001/REC-SVG-20010904/DTD/svg10.dtd">
<svg version="1.0" xmlns="http://www.w3.org/2000/svg"
 width="6912.000000pt" height="1719.000000pt" viewBox="0 0 6912.000000 1719.000000"
 preserveAspectRatio="xMidYMid meet">

<g transform="translate(0.000000,1719.000000) scale(0.100000,-0.100000)"
fill="#000000" stroke="none">
<path d="M7155 15115 c-51 -18 -101 -72 -115 -125 -22 -81 10 -162 83 -209
l37 -24 0 -675 c0 -611 -1 -674 -16 -668 -9 3 -24 6 -35 6 -19 0 -19 15 -19
619 l0 619 -67 16 c-153 34 -308 50 -498 50 -212 0 -328 -16 -477 -65 -198
-64 -301 -137 -472 -333 -213 -245 -346 -355 -475 -393 -107 -31 -220 7 -349
116 -85 72 -88 67 -41 -73 106 -317 332 -544 644 -647 90 -29 200 -29 313 0
45 12 174 57 286 101 275 107 342 124 486 124 131 0 200 -19 305 -82 81 -49
207 -178 280 -286 l60 -88 5 158 5 158 33 -39 32 -40 -1 -4280 0 -4280 -57
-45 c-381 -303 -891 -638 -1377 -905 -88 -48 -162 -90 -165 -93 -6 -5 -23 -7
485 49 385 41 1013 114 1078 125 l37 6 0 -250 0 -249 -167 -7 c-697 -27 -1957
-45 -3493 -52 l-1385 -6 -37 -24 c-48 -31 -84 -102 -98 -192 -17 -108 -18
-1110 -2 -1242 30 -239 83 -407 156 -488 69 -76 34 -72 695 -72 574 0 593 1
631 20 22 11 97 36 168 54 145 39 261 87 517 213 293 144 450 198 605 209 152
11 259 -23 620 -197 248 -119 297 -137 545 -203 94 -24 202 -56 242 -70 l71
-26 509 3 508 2 130 37 c181 50 274 85 492 182 261 116 360 154 493 189 102
26 132 30 265 31 225 1 326 -29 730 -222 116 -55 252 -116 304 -137 52 -20
116 -47 142 -61 l48 -24 701 0 700 0 50 31 c27 17 126 66 219 109 93 43 239
115 324 160 256 133 384 172 577 172 187 0 306 -42 586 -204 71 -42 153 -88
183 -103 60 -30 281 -105 309 -105 23 0 214 124 311 203 102 82 285 261 380
372 410 478 724 1121 939 1925 28 102 55 198 62 215 15 39 6 71 -27 92 -22 15
-46 18 -123 16 -100 -2 -137 -10 -492 -102 -965 -250 -2774 -465 -5008 -596
-811 -47 -1902 -94 -1931 -83 -14 5 -17 41 -22 264 -3 142 -4 260 -2 263 3 2
49 10 102 17 2103 282 3243 489 4168 755 568 164 1046 229 1580 216 344 -9
606 -39 926 -107 541 -114 1013 -335 1149 -538 l32 -47 -5 265 c-16 744 -160
1602 -406 2415 -580 1916 -1706 3507 -3276 4627 -1201 857 -2639 1447 -4360
1788 -88 18 -163 35 -167 38 -4 4 -16 315 -27 692 l-19 685 30 24 c17 14 39
43 49 65 67 149 -62 312 -206 261z m294 -2124 c880 -1108 1484 -2376 1671
-3506 50 -302 62 -433 67 -746 11 -575 -51 -991 -222 -1504 -191 -574 -502
-1114 -931 -1615 -105 -123 -474 -503 -481 -496 -4 4 -222 7802 -223 7949 0
31 2 57 4 57 3 0 54 -62 115 -139z"/>
<path d="M6881 12632 c-243 -589 -690 -1567 -1050 -2297 -906 -1838 -1767
-3218 -2625 -4209 -167 -193 -494 -526 -661 -673 -391 -344 -775 -576 -1057
-638 -93 -20 -94 -20 20 -126 235 -220 631 -344 1252 -390 204 -15 920 -6
1175 15 851 71 1855 229 2745 432 107 25 207 47 223 51 l27 5 0 3969 c0 2183
-1 3969 -2 3969 -2 0 -23 -49 -47 -108z"/>
<path d="M29780 10494 c-173 -29 -325 -56 -337 -59 -21 -5 -23 -11 -23 -64 l0
-58 78 -5 c126 -8 160 -36 183 -154 14 -79 24 -1713 11 -1881 -15 -184 -39
-215 -187 -236 l-90 -13 -3 -62 -3 -62 506 0 505 0 0 64 0 63 -71 7 c-85 8
-129 25 -157 61 -44 56 -47 88 -47 505 0 381 1 398 23 473 46 159 116 256 222
306 49 23 67 26 165 26 95 0 116 -3 152 -22 84 -45 129 -128 160 -296 15 -77
18 -157 18 -487 0 -423 -3 -452 -51 -509 -29 -35 -76 -52 -164 -60 l-65 -6 -3
-62 -3 -63 501 0 500 0 0 64 0 64 -74 7 c-129 12 -168 48 -186 171 -5 38 -10
232 -10 431 0 390 -5 448 -54 577 -40 105 -83 175 -150 241 -117 115 -256 165
-455 165 -208 0 -326 -45 -453 -171 -42 -42 -79 -74 -82 -71 -4 3 -6 268 -6
589 0 549 -1 583 -17 582 -10 -1 -160 -25 -333 -55z"/>
<path d="M35043 10487 l-343 -62 0 -52 c0 -58 -5 -54 95 -73 114 -23 136 -47
163 -179 13 -65 15 -238 19 -1148 l4 -1073 53 0 c53 0 54 1 157 91 57 51 111
98 120 105 14 12 21 9 59 -27 145 -138 375 -220 574 -204 229 18 404 100 558
263 323 343 312 944 -24 1270 -81 79 -140 121 -217 156 -202 90 -447 89 -632
-5 -43 -21 -88 -56 -136 -106 l-73 -74 0 590 c0 557 -1 591 -17 590 -10 0
-172 -28 -360 -62z m937 -1086 c102 -39 170 -117 216 -249 68 -198 73 -588 8
-802 -37 -125 -114 -228 -202 -271 -39 -19 -64 -23 -142 -24 -86 0 -101 3
-160 31 -120 58 -215 184 -255 338 -21 84 -29 299 -16 451 12 143 38 254 79
330 51 94 162 183 256 206 62 14 164 10 216 -10z"/>
<path d="M46265 10490 c-192 -32 -351 -59 -352 -59 -2 -1 -3 -25 -3 -55 l0
-53 83 -5 c110 -7 154 -28 179 -84 33 -77 39 -262 36 -1169 -3 -794 -5 -863
-21 -905 -10 -24 -25 -53 -35 -63 -30 -33 -90 -58 -157 -64 l-65 -6 0 -63 0
-64 500 0 500 0 0 65 0 65 -47 0 c-66 0 -116 16 -154 47 -68 58 -64 -28 -67
1286 l-2 1187 -23 -1 c-12 -1 -179 -27 -372 -59z"/>
<path d="M47490 10523 c-180 -93 -181 -341 -1 -435 193 -101 415 85 346 291
-34 104 -110 162 -220 168 -62 4 -76 1 -125 -24z"/>
<path d="M48560 10491 l-335 -57 -3 -60 -3 -61 73 -5 c40 -3 88 -12 105 -22
43 -22 71 -80 83 -169 14 -106 13 -1824 -1 -1904 -20 -114 -81 -168 -203 -180
l-66 -6 0 -63 0 -64 470 0 470 0 0 65 0 65 -42 0 c-131 0 -177 102 -178 390
l0 126 73 72 c40 39 77 72 83 72 13 0 339 -490 379 -569 25 -49 25 -55 11 -70
-11 -11 -41 -18 -94 -21 l-77 -5 -3 -62 -3 -63 501 0 501 0 -3 63 -3 62 -66 7
c-80 7 -132 33 -192 93 -44 43 -617 845 -617 862 0 11 326 315 392 365 83 63
170 99 255 105 l73 6 0 63 0 64 -435 0 -435 0 0 -65 0 -65 98 -1 c174 -1 205
-29 134 -122 -36 -48 -460 -466 -539 -532 l-33 -27 0 886 c0 838 -1 886 -17
885 -10 -1 -169 -27 -353 -58z"/>
<path d="M54125 10539 c-43 -12 -112 -74 -136 -122 -88 -171 46 -369 240 -355
190 14 290 231 178 386 -61 85 -176 122 -282 91z"/>
<path d="M27950 10375 c-417 -69 -757 -307 -927 -650 -46 -91 -90 -220 -115
-330 -30 -135 -33 -454 -5 -585 52 -248 148 -432 306 -590 238 -237 544 -350
949 -350 81 0 190 7 243 15 182 27 395 111 537 212 35 25 66 42 70 38 4 -3 16
-57 27 -118 l20 -112 78 -3 77 -3 -2 433 -3 433 -68 0 -69 0 -32 -95 c-135
-394 -401 -590 -801 -590 -186 0 -323 36 -441 118 -240 164 -356 460 -356 907
0 421 97 708 302 898 132 122 284 177 491 177 207 0 351 -59 497 -202 87 -85
152 -195 194 -323 l33 -104 62 -1 62 0 5 43 c3 23 17 191 31 372 14 182 27
345 29 363 l5 32 -80 0 c-55 0 -81 -4 -84 -12 -2 -7 -16 -52 -30 -99 l-27 -87
-70 40 c-105 61 -257 125 -366 154 -84 23 -121 27 -277 30 -122 2 -207 -1
-265 -11z"/>
<path d="M41796 9343 c-231 -576 -434 -1078 -453 -1115 -59 -114 -150 -176
-286 -196 l-52 -7 -3 -63 -3 -62 441 0 440 0 0 65 0 65 -68 0 c-76 0 -154 19
-183 46 -63 57 -39 202 81 487 l32 77 455 -2 455 -3 44 -115 c97 -253 123
-365 96 -416 -18 -33 -76 -55 -178 -67 l-94 -11 0 -63 0 -63 605 0 605 0 0 64
0 64 -61 7 c-193 22 -261 75 -358 275 -28 58 -232 548 -454 1090 l-403 985
-120 3 -120 3 -418 -1048z m596 -14 c97 -255 177 -470 177 -476 1 -10 -81 -13
-375 -13 -208 0 -374 4 -372 9 160 416 376 950 383 947 6 -1 90 -212 187 -467z"/>
<path d="M34047 9927 c-77 -148 -225 -270 -414 -343 l-73 -28 0 -68 0 -68 114
0 115 0 3 -622 c4 -686 4 -678 68 -766 75 -104 186 -152 367 -159 155 -7 246
12 330 66 57 37 123 117 123 149 0 8 -14 32 -31 54 l-32 39 -29 -36 c-38 -45
-73 -63 -141 -71 -68 -8 -119 14 -154 67 -47 71 -52 145 -53 737 l0 542 185 0
185 0 0 85 0 85 -185 0 -185 0 0 195 0 195 -82 0 -83 0 -28 -53z"/>
<path d="M39554 9953 c-76 -125 -121 -178 -204 -245 -57 -46 -157 -100 -237
-128 l-63 -23 0 -68 0 -68 118 -3 117 -3 5 -640 c5 -624 6 -641 26 -686 42
-89 124 -158 234 -195 76 -26 319 -27 400 -2 72 22 142 69 180 121 45 61 47
79 14 124 -16 21 -30 40 -31 42 -2 3 -17 -12 -34 -32 -40 -49 -75 -66 -146
-73 -111 -10 -171 55 -192 209 -7 48 -11 283 -11 608 l0 529 185 0 185 0 0 85
0 85 -185 0 -185 0 0 195 0 195 -80 0 c-76 0 -80 -1 -96 -27z"/>
<path d="M52723 9620 c-218 -39 -377 -196 -413 -410 -27 -159 24 -297 155
-425 79 -77 145 -122 379 -258 102 -59 193 -142 225 -204 14 -29 21 -61 21
-101 0 -73 -26 -116 -90 -152 -40 -22 -57 -25 -150 -25 -94 0 -111 3 -165 28
-74 35 -139 102 -182 188 -31 65 -73 181 -73 206 0 10 -18 13 -70 13 l-70 0 0
-290 0 -290 50 0 c50 0 51 1 82 50 17 28 34 50 38 50 5 0 31 -16 60 -35 106
-71 313 -113 472 -95 312 36 498 215 498 478 0 239 -115 375 -500 597 -241
139 -313 216 -314 335 -1 110 66 170 189 170 136 0 223 -74 311 -266 l35 -74
59 0 60 0 0 245 0 245 -39 0 c-38 0 -43 -4 -97 -78 -1 -2 -26 10 -55 27 -105
59 -297 91 -416 71z"/>
<path d="M32225 9605 c-256 -47 -388 -155 -387 -317 0 -129 52 -190 164 -196
132 -8 179 26 253 182 28 61 66 125 83 142 44 44 113 60 195 44 134 -25 190
-101 208 -281 5 -58 9 -128 7 -154 l-3 -48 -285 -122 c-329 -140 -366 -158
-477 -231 -149 -99 -225 -216 -225 -348 0 -142 57 -254 168 -328 71 -48 137
-68 249 -75 223 -13 439 93 560 276 22 33 43 61 46 61 3 0 9 -26 12 -57 14
-135 75 -226 175 -263 48 -18 72 -21 152 -18 115 6 188 31 254 89 66 59 70 70
44 123 l-21 45 -38 -20 c-79 -40 -137 -14 -165 74 -14 44 -18 128 -24 557 -6
485 -7 507 -28 564 -59 161 -146 238 -327 289 -94 27 -467 34 -590 12z m515
-1138 c-19 -126 -84 -212 -199 -265 -80 -38 -190 -42 -246 -10 -57 34 -85 88
-85 169 0 55 4 72 29 110 59 91 167 171 376 276 l130 65 3 -139 c1 -76 -2
-169 -8 -206z"/>
<path d="M37710 9606 c-300 -64 -539 -247 -655 -500 -46 -101 -66 -185 -72
-311 -20 -405 228 -755 627 -883 115 -37 181 -45 337 -40 158 6 248 25 377 83
256 114 456 357 511 620 18 86 20 256 4 341 -57 311 -324 582 -664 674 -103
28 -366 37 -465 16z m353 -204 c84 -42 148 -111 197 -215 58 -121 81 -219 87
-377 14 -355 -90 -616 -285 -712 -60 -30 -75 -33 -152 -33 -101 1 -154 21
-226 87 -91 83 -154 210 -185 378 -17 86 -17 368 0 445 51 244 153 393 304
447 78 28 178 20 260 -20z"/>
<path d="M44710 9604 c-91 -19 -212 -82 -298 -153 -39 -34 -74 -61 -77 -61 -3
0 -5 50 -5 110 0 61 -4 110 -8 110 -14 0 -586 -80 -609 -85 -21 -5 -23 -11
-23 -64 l0 -58 78 -10 c121 -16 160 -43 184 -129 16 -57 23 -1768 8 -1849 -22
-113 -81 -166 -202 -180 l-58 -6 0 -65 0 -64 550 0 550 0 0 64 0 63 -82 8
c-107 9 -197 37 -230 72 -60 63 -63 78 -66 436 -2 180 -1 327 1 327 3 0 30
-24 61 -54 63 -60 152 -108 246 -132 50 -13 95 -15 204 -11 165 5 226 20 351
82 194 97 334 260 404 471 39 115 51 194 51 324 -2 444 -261 776 -668 856 -92
18 -276 17 -362 -2z m318 -199 c146 -80 217 -265 228 -600 15 -412 -68 -637
-261 -711 -69 -26 -222 -16 -298 19 -110 51 -212 189 -253 342 -21 83 -30 353
-15 494 25 236 96 367 241 441 80 41 121 50 215 47 77 -2 97 -7 143 -32z"/>
<path d="M47425 9560 c-187 -33 -341 -59 -343 -59 -2 -1 -2 -25 0 -53 l3 -53
86 -7 c162 -12 184 -42 199 -275 12 -191 12 -776 0 -872 -18 -138 -73 -194
-206 -208 l-69 -8 -3 -62 -3 -63 506 0 505 0 0 64 0 64 -67 4 c-140 7 -188 63
-203 235 -5 54 -9 380 -10 726 l0 627 -27 -1 c-16 -1 -181 -27 -368 -59z"/>
<path d="M50915 9614 c-209 -30 -353 -100 -413 -202 -23 -41 -27 -58 -27 -128
0 -72 3 -86 28 -123 38 -57 81 -74 172 -69 113 5 140 28 214 182 38 76 73 134
92 150 79 67 234 54 317 -26 55 -54 74 -123 79 -283 l5 -140 -274 -115 c-401
-169 -504 -225 -606 -334 -79 -83 -107 -151 -107 -256 0 -231 149 -377 405
-397 228 -17 449 91 575 281 21 30 41 54 45 51 4 -2 10 -33 13 -67 11 -113 54
-187 139 -234 50 -27 60 -29 168 -29 104 0 120 3 173 27 74 35 111 61 142 102
l25 33 -25 45 -25 46 -37 -19 c-52 -26 -95 -24 -125 6 -49 49 -51 66 -58 600
-6 424 -9 509 -23 558 -50 171 -141 261 -320 315 -75 23 -101 25 -302 28 -121
1 -233 0 -250 -2z m445 -1217 c-56 -148 -189 -235 -346 -225 -96 6 -156 61
-170 156 -21 139 99 264 403 416 l128 65 3 -179 c2 -159 0 -184 -18 -233z"/>
<path d="M54035 9561 l-340 -57 -3 -57 -3 -57 61 0 c122 0 183 -32 209 -110
26 -75 40 -784 21 -999 -6 -67 -16 -118 -29 -145 -27 -55 -87 -93 -160 -101
-31 -3 -63 -7 -71 -8 -11 -2 -16 -18 -18 -65 l-3 -62 506 0 506 0 -3 63 -3 62
-65 6 c-114 10 -161 43 -191 134 -10 31 -14 200 -16 748 l-4 707 -27 -1 c-15
-1 -180 -27 -367 -58z"/>
<path d="M19462 6054 c-85 -42 -134 -124 -133 -224 0 -66 8 -90 49 -146 64
-88 193 -119 297 -70 166 77 193 290 53 410 -73 63 -176 75 -266 30z"/>
<path d="M22300 6019 c-184 -32 -336 -58 -338 -59 -2 0 -2 -26 0 -57 l3 -58
75 -6 c141 -12 174 -51 190 -231 13 -141 12 -1754 0 -1842 -20 -134 -75 -189
-206 -203 l-69 -8 -3 -62 -3 -63 476 0 476 0 -3 63 -3 62 -54 7 c-126 15 -161
95 -161 373 l0 140 78 78 79 78 170 -258 c195 -295 223 -342 223 -371 0 -31
-29 -42 -109 -42 l-71 0 0 -65 0 -65 495 0 495 0 0 64 0 63 -63 5 c-82 7 -130
30 -192 93 -28 27 -169 219 -315 425 -145 206 -274 389 -287 406 l-23 31 167
158 c260 245 348 301 486 314 l72 6 3 63 3 62 -441 0 -441 0 3 -62 3 -63 115
-6 c120 -6 160 -18 160 -48 0 -39 -92 -141 -343 -381 l-262 -251 -3 886 -2
885 -23 -1 c-12 -1 -173 -27 -357 -60z"/>
<path d="M28420 6021 l-345 -56 -3 -56 -3 -56 80 -6 c151 -10 185 -47 202
-214 6 -58 9 -468 7 -1003 -3 -897 -3 -905 -24 -950 -12 -25 -32 -55 -45 -66
-32 -29 -109 -54 -164 -54 l-45 0 0 -65 0 -65 505 0 506 0 -3 63 -3 62 -71 6
c-107 10 -158 44 -186 128 -10 28 -13 310 -16 1214 l-3 1177 -22 -1 c-12 -1
-177 -27 -367 -58z"/>
<path d="M46350 6019 c-184 -32 -336 -58 -338 -59 -2 0 -2 -26 0 -57 l3 -58
75 -6 c153 -14 173 -40 190 -251 13 -150 12 -1751 0 -1848 -16 -121 -54 -156
-186 -174 l-89 -12 -3 -62 -3 -62 506 0 505 0 0 63 0 63 -86 11 c-97 12 -129
29 -157 86 -29 58 -39 222 -35 552 4 244 8 314 22 375 39 162 116 274 224 327
74 36 218 45 289 18 101 -39 156 -123 190 -290 16 -78 18 -144 18 -500 0 -439
-2 -456 -51 -515 -29 -34 -76 -52 -164 -59 l-65 -6 -3 -62 -3 -63 506 0 506 0
-3 62 -3 62 -82 12 c-80 11 -125 30 -150 63 -30 41 -36 114 -43 541 -8 490 -7
488 -87 650 -83 171 -215 275 -401 316 -105 23 -311 16 -402 -15 -84 -28 -187
-99 -250 -170 l-50 -56 0 593 0 592 -22 -1 c-13 -1 -174 -27 -358 -60z"/>
<path d="M15942 5828 l3 -62 89 -13 c48 -7 102 -21 120 -31 45 -26 74 -87 87
-178 6 -53 9 -465 6 -1229 -4 -1244 -2 -1201 -57 -1349 -30 -79 -108 -160
-169 -176 -49 -13 -120 -6 -161 15 -37 20 -80 69 -148 171 -70 105 -117 150
-168 160 -90 17 -191 -26 -226 -96 -11 -22 -18 -58 -18 -95 0 -147 111 -258
317 -317 69 -20 101 -23 273 -23 233 0 307 13 450 82 152 73 260 193 317 351
59 162 56 97 63 1372 4 897 9 1184 18 1212 29 84 89 123 212 134 l70 7 0 63 0
64 -540 0 -541 0 3 -62z"/>
<path d="M24990 5825 l0 -65 38 0 c49 -1 152 -23 178 -40 31 -19 62 -70 73
-120 7 -29 11 -452 11 -1221 0 -1001 -2 -1189 -15 -1262 -27 -156 -76 -251
-156 -304 -59 -39 -155 -39 -219 -1 -44 25 -58 42 -173 208 -57 82 -113 120
-177 120 -168 0 -258 -156 -180 -310 45 -88 165 -168 310 -207 90 -25 422 -25
526 -1 292 67 468 248 537 553 20 87 21 129 26 1260 l6 1170 22 48 c19 40 31
52 75 72 32 14 83 27 126 31 l72 7 0 63 0 64 -540 0 -540 0 0 -65z"/>
<path d="M34012 5829 l3 -63 89 -13 c106 -15 143 -35 176 -94 l25 -44 0 -950
c0 -909 -1 -952 -19 -985 -44 -83 -93 -109 -217 -117 l-89 -6 0 -63 0 -64 635
0 636 0 -3 63 -3 62 -120 6 c-149 8 -219 27 -262 71 -68 70 -68 69 -71 521
l-3 407 21 0 c26 0 94 -34 140 -70 19 -16 224 -260 455 -544 l420 -516 383 0
383 0 -3 63 -3 62 -63 8 c-81 10 -157 39 -231 88 -57 38 -108 95 -813 905
l-27 31 86 22 c221 56 357 144 453 292 88 136 124 362 82 517 -51 188 -195
320 -438 401 -186 62 -212 64 -952 68 l-673 4 3 -62z m1300 -147 c123 -49 205
-129 250 -242 19 -47 22 -75 23 -185 0 -110 -4 -141 -23 -200 -29 -89 -79
-157 -145 -199 -118 -74 -222 -96 -458 -96 l-169 0 0 463 c0 357 3 466 13 476
9 9 65 11 232 9 202 -3 225 -5 277 -26z"/>
<path d="M49220 5826 l0 -63 60 -7 c148 -17 213 -62 247 -173 17 -54 18 -120
18 -928 0 -805 -1 -874 -18 -927 -33 -108 -98 -153 -237 -164 -115 -9 -110 -6
-110 -74 l0 -60 480 0 480 0 0 60 c0 68 5 64 -109 74 -121 11 -178 59 -209
174 -13 48 -16 181 -19 865 -3 522 -1 807 5 807 6 0 322 -444 702 -987 381
-544 702 -998 713 -1010 20 -22 25 -23 229 -23 l208 0 0 998 c0 548 5 1041 10
1094 19 200 80 259 283 275 l77 6 0 63 0 64 -475 0 -475 0 0 -65 0 -65 38 0
c61 0 154 -20 188 -41 47 -29 81 -101 93 -199 16 -126 15 -1488 -1 -1472 -7 7
-298 423 -648 924 l-636 913 -447 3 -447 2 0 -64z"/>
<path d="M60580 5448 c-46 -82 -146 -187 -230 -243 -55 -37 -141 -77 -232
-108 -15 -5 -18 -19 -18 -77 l0 -70 115 0 115 0 0 -593 c0 -385 4 -614 11
-652 29 -155 142 -261 316 -295 93 -18 282 -8 360 20 73 25 154 92 184 152 21
41 20 43 -19 95 l-24 33 -43 -44 c-33 -35 -54 -47 -97 -56 -130 -29 -200 27
-227 181 -7 43 -11 252 -11 612 l0 547 185 0 185 0 0 85 0 85 -185 0 -185 0 0
195 0 195 -82 0 -83 -1 -35 -61z"/>
<path d="M54954 5146 c-273 -52 -457 -330 -389 -589 45 -174 159 -287 475
-470 136 -79 212 -139 256 -203 36 -53 39 -61 39 -128 0 -64 -3 -77 -27 -109
-38 -49 -115 -77 -211 -77 -197 1 -311 99 -394 339 l-33 96 -65 3 -65 3 0
-291 0 -290 49 0 c48 0 50 1 81 50 18 28 35 50 39 50 3 0 24 -12 44 -26 190
-129 528 -144 740 -32 74 39 166 128 196 192 54 111 65 240 31 355 -47 159
-171 279 -458 442 -274 156 -350 238 -340 365 8 99 77 154 193 154 134 0 207
-62 306 -262 l40 -78 59 0 60 0 0 245 0 245 -39 0 c-34 0 -44 -6 -71 -39 l-31
-40 -67 34 c-124 62 -286 86 -418 61z"/>
<path d="M17998 5140 c-395 -71 -678 -360 -730 -745 -15 -110 -4 -302 21 -392
84 -295 284 -493 581 -575 114 -31 344 -36 470 -10 179 37 334 119 458 243 34
34 62 65 62 68 0 3 -20 28 -44 56 l-44 50 -58 -46 c-346 -269 -715 -241 -876
67 -20 38 -45 100 -57 138 -27 87 -46 285 -34 346 l9 45 553 3 c419 2 558 5
569 14 19 16 11 194 -12 283 -58 218 -219 379 -441 441 -68 19 -349 28 -427
14z m286 -200 c93 -47 156 -158 156 -275 0 -94 17 -90 -345 -93 l-316 -3 7 28
c43 180 159 322 294 360 65 18 146 11 204 -17z"/>
<path d="M19395 5090 c-187 -33 -341 -59 -343 -59 -2 -1 -2 -25 0 -53 l3 -53
80 -6 c44 -4 91 -11 105 -17 31 -12 66 -49 79 -84 25 -66 32 -340 29 -1068 -4
-820 -4 -822 -67 -899 -52 -66 -74 -76 -164 -76 -96 0 -113 9 -174 94 -115
161 -125 173 -166 191 -56 26 -113 25 -167 -2 -61 -32 -83 -66 -88 -137 -3
-47 0 -69 17 -105 47 -96 165 -171 320 -202 119 -23 348 -16 446 16 158 50
271 131 350 250 58 88 90 168 115 292 19 92 20 140 20 1037 l0 941 -27 -1
c-16 -1 -181 -27 -368 -59z"/>
<path d="M20695 5143 c-215 -32 -363 -110 -415 -218 -45 -93 -16 -233 59 -282
44 -30 147 -32 206 -4 62 28 85 60 143 192 61 138 137 184 267 160 124 -23
186 -102 206 -261 5 -47 9 -117 7 -154 l-3 -69 -305 -131 c-168 -72 -335 -148
-371 -168 -212 -119 -309 -248 -309 -411 0 -157 76 -280 215 -347 156 -76 398
-60 565 38 62 35 143 114 199 191 l46 65 13 -78 c16 -98 44 -158 94 -201 54
-46 116 -65 208 -65 124 0 230 39 300 112 46 47 48 57 18 109 l-21 38 -38 -20
c-73 -37 -120 -22 -152 49 -21 45 -22 63 -28 542 -5 411 -9 506 -23 558 -47
183 -151 284 -346 337 -51 14 -112 18 -285 20 -121 2 -233 1 -250 -2z m465
-1160 c-22 -123 -105 -220 -221 -261 -177 -62 -309 9 -309 165 0 132 125 251
414 394 l121 59 3 -151 c1 -83 -2 -176 -8 -206z"/>
<path d="M26820 5144 c-208 -38 -302 -75 -374 -148 -77 -80 -97 -200 -48 -294
30 -58 62 -76 147 -80 131 -7 183 34 255 202 59 137 130 187 244 171 172 -22
236 -125 236 -378 l0 -112 -238 -100 c-493 -207 -630 -293 -711 -447 -104
-199 8 -460 226 -528 268 -84 564 20 718 253 21 31 42 57 46 57 5 0 9 -20 9
-45 0 -68 37 -169 77 -210 65 -67 103 -80 233 -80 109 0 118 2 185 33 73 35
103 58 137 105 l20 27 -26 44 -26 44 -37 -19 c-72 -37 -125 -16 -159 63 -17
39 -19 89 -24 548 -6 447 -9 511 -24 560 -56 171 -142 254 -319 308 -75 23
-101 25 -302 28 -121 1 -231 0 -245 -2z m449 -1194 c-29 -102 -94 -177 -195
-221 -59 -26 -167 -36 -217 -20 -73 24 -126 121 -113 204 20 123 121 215 391
354 l140 72 3 -172 c2 -114 -1 -187 -9 -217z"/>
<path d="M31945 5119 c-82 -15 -214 -40 -292 -55 l-143 -26 0 -59 0 -59 49 0
c58 0 127 -23 157 -51 34 -32 62 -107 73 -199 14 -110 14 -910 0 -970 -21 -93
-65 -122 -201 -136 l-68 -7 0 -63 0 -64 535 0 536 0 -3 63 -3 62 -90 6 c-110
7 -157 22 -189 59 -47 57 -51 86 -51 380 0 282 5 330 47 510 26 110 87 238
133 279 46 40 96 42 151 4 138 -94 123 -88 206 -88 69 0 81 3 119 30 75 53
117 175 89 259 -16 49 -63 102 -114 128 -63 33 -210 37 -296 8 -134 -45 -245
-135 -336 -272 -26 -38 -50 -66 -54 -61 -4 4 -18 86 -30 181 l-23 172 -26 -1
c-14 -1 -93 -14 -176 -30z"/>
<path d="M37338 5140 c-229 -39 -450 -171 -572 -344 -106 -150 -155 -296 -163
-491 -9 -206 25 -360 112 -507 152 -260 415 -398 755 -398 275 0 495 87 669
264 l64 65 -42 50 c-24 28 -46 51 -49 51 -3 0 -31 -20 -61 -44 -127 -99 -262
-158 -402 -177 -248 -34 -451 116 -530 389 -26 90 -44 284 -32 342 l9 45 553
3 c420 2 558 5 569 14 12 10 14 32 9 118 -7 125 -25 201 -72 296 -80 165 -241
281 -443 320 -79 15 -294 17 -374 4z m286 -200 c61 -31 120 -103 141 -172 16
-54 20 -145 7 -165 -18 -28 -70 -33 -358 -33 l-294 0 6 28 c34 140 114 264
212 324 86 53 201 60 286 18z"/>
<path d="M38720 5091 l-285 -56 -3 -56 -3 -57 89 -4 c113 -5 149 -24 177 -93
19 -48 20 -72 20 -585 0 -531 0 -535 -22 -583 -27 -59 -73 -82 -180 -93 l-73
-7 0 -63 0 -64 505 0 506 0 -3 62 -3 62 -80 12 c-88 12 -109 20 -141 56 -46
50 -49 79 -49 488 0 323 3 397 17 456 40 172 120 299 222 351 44 23 63 27 136
27 155 0 245 -45 295 -148 63 -129 79 -287 74 -748 -4 -332 -4 -333 -29 -382
-34 -69 -60 -84 -165 -99 l-90 -13 -3 -62 -3 -62 511 0 511 0 -3 62 -3 62 -89
12 c-100 14 -131 30 -161 90 -19 37 -20 62 -23 433 -3 444 2 499 63 629 41 86
117 171 183 203 36 18 65 23 127 23 123 1 180 -17 241 -78 56 -57 84 -119 106
-233 19 -98 18 -903 0 -955 -26 -74 -104 -118 -209 -118 l-53 0 0 -65 0 -65
505 0 506 0 -3 62 -3 62 -84 12 c-99 14 -127 31 -161 100 l-25 49 -6 475 c-6
533 -12 579 -76 703 -44 83 -105 139 -198 182 -125 58 -190 70 -385 70 -156 0
-183 -3 -250 -23 -135 -43 -231 -99 -344 -203 -37 -33 -61 -49 -64 -41 -8 26
-79 111 -120 145 -60 51 -154 94 -242 113 -107 23 -342 15 -423 -14 -99 -36
-177 -84 -268 -164 -49 -43 -92 -78 -97 -78 -5 0 -12 26 -15 58 -4 31 -11 92
-18 135 -10 69 -14 77 -33 76 -11 -1 -149 -27 -306 -58z"/>
<path d="M42961 5135 c-114 -26 -236 -93 -318 -174 -22 -23 -46 -41 -52 -41
-7 0 -11 36 -11 110 0 61 -3 110 -7 110 -14 0 -588 -80 -610 -85 -21 -5 -23
-11 -23 -64 l0 -59 63 -7 c81 -8 127 -23 156 -49 31 -28 41 -56 52 -151 13
-117 12 -1730 -2 -1794 -21 -101 -83 -153 -199 -166 l-60 -7 0 -64 0 -64 550
0 550 0 0 64 0 64 -77 6 c-160 14 -239 52 -277 135 -20 43 -21 64 -24 374 -2
180 0 327 3 327 4 0 26 -19 49 -42 55 -55 127 -100 206 -129 59 -22 81 -24
230 -24 145 0 174 3 240 23 277 86 479 297 562 587 20 70 23 102 23 260 0 158
-3 190 -23 260 -85 293 -274 492 -552 580 -73 24 -106 28 -235 31 -107 3 -168
0 -214 -11z m261 -175 c101 -28 189 -126 232 -259 38 -117 47 -181 53 -376 12
-399 -61 -610 -239 -690 -57 -26 -68 -27 -163 -23 -87 4 -112 9 -160 33 -116
56 -212 190 -252 350 -24 99 -24 485 1 595 42 190 139 306 301 362 56 19 170
23 227 8z"/>
<path d="M44695 5134 c-144 -26 -245 -70 -312 -137 -58 -56 -76 -107 -71 -201
4 -83 19 -114 78 -153 43 -30 146 -32 205 -4 62 29 83 56 148 201 60 132 133
175 262 151 126 -23 187 -103 206 -268 5 -51 9 -120 7 -154 l-3 -62 -305 -131
c-168 -72 -335 -148 -371 -168 -151 -85 -250 -183 -290 -287 -23 -62 -25 -175
-5 -242 40 -133 156 -233 303 -264 253 -54 507 48 661 264 l47 65 13 -78 c16
-98 44 -158 94 -201 54 -46 116 -65 208 -65 124 0 225 37 298 110 48 48 50 61
19 111 l-22 37 -35 -19 c-69 -36 -122 -20 -156 48 -18 35 -19 76 -25 538 -7
550 -10 572 -71 687 -56 104 -152 174 -298 213 -91 25 -469 31 -585 9z m516
-1142 c-20 -128 -102 -227 -222 -270 -177 -62 -309 9 -309 165 0 134 132 258
422 398 l113 55 3 -143 c1 -78 -2 -170 -7 -205z"/>
<path d="M56435 5134 c-144 -26 -245 -70 -312 -137 -58 -56 -76 -107 -71 -201
4 -83 19 -114 78 -153 43 -30 146 -32 205 -4 62 29 79 51 149 202 45 96 83
135 150 150 68 15 157 -1 211 -39 78 -53 122 -202 113 -383 l-3 -62 -305 -131
c-168 -72 -335 -148 -371 -168 -151 -85 -250 -183 -290 -287 -23 -62 -25 -175
-5 -242 79 -260 416 -357 724 -209 94 45 171 112 241 209 l46 65 13 -78 c16
-98 44 -158 94 -201 54 -46 116 -65 208 -65 124 0 230 39 300 112 46 46 48 59
17 109 l-22 37 -35 -19 c-69 -36 -117 -22 -152 44 -23 41 -23 49 -29 542 -7
550 -10 572 -71 687 -56 104 -152 174 -298 213 -91 25 -469 31 -585 9z m516
-1142 c-20 -128 -102 -227 -222 -270 -177 -62 -309 9 -309 165 0 134 121 249
415 394 l120 59 3 -142 c1 -79 -2 -171 -7 -206z"/>
<path d="M58060 5089 c-157 -32 -286 -58 -288 -59 -2 0 -2 -24 0 -52 l3 -53
85 -6 c108 -7 145 -26 171 -85 31 -70 41 -254 37 -709 l-3 -410 -25 -49 c-35
-69 -60 -85 -163 -99 l-87 -11 0 -63 0 -63 500 0 500 0 0 63 0 63 -86 11 c-98
12 -129 29 -159 89 -19 37 -20 62 -23 432 -3 419 2 483 47 602 26 68 90 155
145 196 64 50 128 67 214 59 190 -16 274 -100 314 -312 9 -49 13 -187 13 -488
0 -382 -2 -424 -18 -467 -31 -81 -95 -118 -204 -118 l-53 0 0 -65 0 -65 500 0
501 0 -3 62 -3 62 -84 12 c-95 14 -127 32 -156 90 -19 36 -20 67 -26 469 -7
465 -13 523 -66 648 -64 149 -170 265 -295 322 -120 54 -368 73 -507 39 -128
-32 -275 -122 -360 -221 -22 -26 -42 -45 -45 -43 -2 3 -12 57 -21 120 -23 157
-23 160 -49 159 -11 -1 -149 -27 -306 -60z"/>
<path d="M61880 5144 c-208 -38 -302 -75 -374 -148 -77 -80 -97 -200 -48 -294
30 -58 62 -76 147 -80 131 -7 183 34 255 202 59 137 130 187 244 171 103 -13
168 -60 207 -149 19 -43 23 -74 27 -196 l4 -145 -239 -100 c-404 -169 -542
-244 -639 -347 -96 -102 -130 -221 -100 -349 43 -184 186 -292 406 -306 224
-15 441 93 565 280 21 31 42 57 46 57 5 0 9 -20 9 -45 0 -68 37 -169 77 -210
64 -66 104 -80 228 -80 153 0 245 37 317 126 29 36 30 37 13 70 -29 57 -32 58
-72 38 -72 -37 -125 -16 -159 63 -17 39 -19 89 -24 548 -6 447 -8 511 -24 560
-57 175 -143 257 -328 311 -63 19 -102 22 -293 24 -121 2 -231 1 -245 -1z
m449 -1194 c-27 -100 -95 -177 -195 -221 -59 -26 -167 -36 -217 -20 -73 24
-126 121 -113 204 20 123 121 215 391 354 l140 72 3 -172 c2 -111 -1 -188 -9
-217z"/>
<path d="M63550 5110 c-113 -22 -247 -47 -298 -56 l-93 -17 3 -56 3 -56 66 -7
c126 -12 181 -66 209 -203 17 -84 26 -841 11 -960 -17 -137 -50 -171 -187
-189 l-89 -12 -3 -62 -3 -62 536 0 535 0 0 64 0 63 -98 5 c-116 6 -167 28
-201 88 -31 55 -45 223 -36 433 18 451 121 737 265 737 26 0 55 -14 116 -56
87 -60 128 -72 208 -60 56 9 127 68 150 127 22 55 22 148 1 194 -39 81 -132
125 -266 125 -174 0 -348 -106 -464 -284 -45 -69 -65 -90 -65 -68 0 14 -40
307 -45 330 -7 28 -7 28 -255 -18z"/>
<path d="M65310 5144 c-206 -37 -304 -76 -376 -150 -75 -78 -95 -199 -46 -292
30 -58 62 -76 147 -80 131 -7 183 34 255 202 59 137 130 187 244 171 103 -13
168 -60 207 -149 19 -43 23 -74 27 -196 l4 -145 -249 -104 c-400 -168 -532
-240 -629 -343 -96 -102 -130 -221 -100 -349 43 -184 186 -292 406 -306 225
-15 441 92 565 280 21 31 41 57 45 57 4 0 10 -29 13 -66 7 -94 53 -183 114
-223 65 -44 113 -54 218 -48 129 7 224 49 287 128 29 36 30 37 13 70 -29 57
-32 58 -72 38 -72 -37 -125 -16 -159 63 -16 39 -19 90 -24 548 -6 492 -7 507
-29 575 -53 161 -142 243 -322 296 -64 19 -103 22 -294 24 -121 2 -231 1 -245
-1z m450 -1193 c-34 -137 -160 -238 -311 -249 -38 -2 -82 1 -102 7 -73 24
-126 121 -113 204 20 121 127 219 390 354 l141 72 3 -172 c2 -102 -2 -190 -8
-216z"/>
<path d="M29200 5056 l0 -63 62 -7 c94 -9 148 -40 178 -101 l24 -49 7 -441 c6
-407 8 -446 28 -520 66 -249 226 -409 458 -461 114 -25 313 -16 416 19 106 37
195 95 271 179 l63 69 6 -38 c3 -21 11 -83 18 -138 6 -55 14 -103 18 -106 3
-4 141 2 306 12 165 10 306 18 313 19 8 0 12 20 12 65 l0 65 -78 0 c-113 0
-160 25 -187 100 -19 53 -20 86 -23 758 l-3 702 -365 0 -365 0 3 -62 3 -63 60
-7 c115 -15 163 -41 194 -108 24 -52 29 -689 7 -837 -18 -122 -62 -239 -114
-308 -125 -165 -378 -177 -496 -23 -35 47 -55 98 -79 203 -18 83 -20 134 -24
648 l-5 557 -354 0 -354 0 0 -64z"/>
<path d="M52140 5055 l0 -65 33 0 c53 0 150 -29 176 -53 53 -49 54 -59 62
-527 4 -253 12 -456 18 -485 61 -276 221 -453 461 -509 98 -24 287 -21 379 4
144 40 241 101 327 203 58 68 56 70 74 -95 7 -64 16 -121 19 -126 4 -6 124 -2
306 9 165 10 306 18 313 19 8 0 12 20 12 65 l0 65 -77 0 c-105 1 -154 22 -177
79 -30 75 -36 217 -36 854 l0 627 -360 0 -360 0 0 -65 0 -65 30 0 c44 0 132
-20 162 -38 14 -8 37 -34 50 -56 l23 -41 0 -405 c0 -453 -4 -492 -69 -628 -44
-91 -95 -146 -170 -185 -53 -27 -72 -31 -141 -31 -69 -1 -88 3 -140 29 -99 49
-150 137 -180 312 -12 69 -15 191 -15 629 l0 544 -360 0 -360 0 0 -65z"/>
</g>
</svg>
